<?xml version="1.0" standalone="no"?>
<!DOCTYPE svg PUBLIC "-//W3C//DTD SVG 20010904//EN"
 "http://www.w3.org/TR/2001/REC-SVG-20010904/DTD/svg10.dtd">
<svg version="1.0" xmlns="http://www.w3.org/2000/svg"
 width="512.000000pt" height="512.000000pt" viewBox="0 0 512.000000 512.000000"
 preserveAspectRatio="xMidYMid meet">
<metadata>
Created by potrace 1.14, written by Peter Selinger 2001-2017
</metadata>
<g transform="translate(0.000000,512.000000) scale(0.100000,-0.100000)"
fill="#000000" stroke="none">
<path d="M2645 5083 c35 -208 64 -317 132 -502 25 -68 61 -155 79 -192 19 -38
34 -70 34 -73 0 -2 16 -33 36 -68 20 -34 50 -88 67 -118 77 -140 262 -387 398
-534 294 -319 617 -558 990 -734 127 -60 282 -120 379 -146 30 -8 71 -20 90
-25 19 -6 60 -16 90 -21 30 -6 64 -12 75 -14 11 -2 39 -7 62 -11 l42 -7 -4 89
c-5 80 -9 118 -20 193 -2 14 -7 45 -10 70 -9 66 -52 244 -80 330 -108 341
-269 634 -494 900 -123 145 -375 374 -480 436 -17 10 -31 22 -31 26 0 4 -4 8
-9 8 -5 0 -49 25 -97 56 -119 74 -323 172 -466 223 -125 45 -352 105 -433 115
-27 3 -59 8 -71 10 -32 6 -131 17 -212 22 l-73 4 6 -37z"/>
<path d="M2267 5104 c-1 -1 -24 -5 -52 -8 -132 -17 -264 -47 -415 -93 -573
-176 -1083 -565 -1401 -1069 -153 -243 -300 -596 -334 -804 -3 -19 -10 -48
-15 -65 -10 -34 -32 -183 -34 -234 -1 -31 1 -34 34 -37 321 -34 764 -192 1107
-395 704 -416 1272 -1105 1517 -1840 57 -170 105 -376 121 -514 1 -11 3 -24 4
-28 0 -5 16 -6 34 -3 29 4 60 9 152 21 25 3 89 17 235 50 55 13 224 70 311
106 559 229 1012 642 1297 1181 28 53 67 136 87 185 38 91 114 311 121 351 3
12 13 59 24 105 10 45 21 100 24 122 3 22 8 56 11 75 2 19 7 52 10 73 3 20 2
37 -3 38 -96 6 -346 61 -497 110 -368 118 -722 309 -1045 567 -224 179 -435
395 -618 634 -59 77 -178 253 -212 313 -178 316 -278 551 -345 815 -11 45 -45
211 -50 245 -14 105 -14 105 -41 103 -14 -2 -26 -3 -27 -4z"/>
<path d="M4 2403 c32 -497 183 -917 484 -1350 168 -241 451 -501 738 -679 107
-66 342 -184 366 -184 8 0 18 -4 23 -9 6 -5 60 -25 120 -46 216 -72 458 -119
668 -130 l79 -4 -7 37 c-4 20 -9 48 -11 62 -2 14 -7 41 -10 60 -3 19 -19 85
-35 145 -222 815 -878 1577 -1681 1954 -106 49 -326 133 -396 150 -20 5 -62
16 -92 24 -30 8 -86 20 -125 26 -38 6 -83 14 -98 17 l-28 6 5 -79z"/>
</g>
</svg>
