<svg xmlns="http://www.w3.org/2000/svg" width="132" height="50" viewBox="0 0 137 52" fill="#A6A6A6" aria-hidden="true" class="d-block">
  <!-- <path d="M74 31.097h1.784v-4.52h5.779v4.52h1.8v-4.175c0-.773-.278-1.282-1.178-1.282h-.606v-.115c1.048-.378 1.752-1.413 1.752-2.86 0-2.153-1.13-3.55-3.504-3.55H74v11.982zm1.784-6.016v-4.405h3.65c1.212 0 1.998.543 1.998 1.693v1.003c0 1.019-.704 1.71-1.997 1.71h-3.65zM85.073 26.758c0 2.744 1.523 4.503 4.093 4.503 2.03 0 3.568-1.118 3.912-2.794h-1.67c-.261.855-1.08 1.446-2.226 1.446-1.424 0-2.373-.92-2.373-2.284v-.477h6.17a8.99 8.99 0 00.066-.937c0-2.449-1.555-3.928-3.895-3.928-2.489 0-4.077 1.644-4.077 4.47zm1.736-.822v-.197c0-1.25.95-2.104 2.324-2.104 1.326 0 2.21.822 2.21 2.021v.28h-4.534zM94.392 28.615c0 1.594 1.032 2.646 2.75 2.646 1.392 0 2.505-.624 2.865-1.561h.115l.016.41c.049.625.328.987 1.228.987h1.555v-1.233h-1.211v-4.52c0-.937-.41-3.057-3.372-3.057-2.112 0-3.487 1.02-3.602 2.827h1.67c.049-.904.655-1.48 1.85-1.48 1.047 0 1.768.445 1.768 1.677v.625h-2.505c-1.915 0-3.127.97-3.127 2.679zm1.72-.362c0-.674.572-1.15 1.62-1.15h2.292v.41c0 1.43-.917 2.4-2.407 2.4-.9 0-1.506-.394-1.506-1.2v-.46zM107.489 31.261c1.358 0 2.471-.608 3.028-1.693h.114l.197 1.529h1.506V19h-1.703v5.079h-.114c-.508-1.036-1.555-1.677-3.028-1.677-2.21 0-3.536 1.595-3.536 4.438 0 2.794 1.309 4.421 3.536 4.421zm.54-1.397c-1.506 0-2.341-.887-2.341-2.219v-1.627c0-1.38.9-2.219 2.341-2.219 1.555 0 2.602 1.003 2.602 2.548v.97c0 1.528-1.031 2.547-2.602 2.547zM114.377 31.097h1.752v-6.098l-.148-3.484h.115l4.207 9.368 4.19-9.368h.099l-.131 3.468v6.114h1.735V19.115h-2.308l-3.552 8.152h-.099l-3.536-8.152h-2.324v11.982zM128.489 31.097h8.054v-1.595h-6.269v-3.83h5.483v-1.511h-5.483v-3.452h6.269v-1.594h-8.054v11.982zM74 49.097h1.784V44.84h3.503c2.488 0 3.814-1.447 3.814-3.863 0-2.366-1.244-3.862-3.814-3.862H74v11.982zm1.784-5.786V38.76h3.52c1.146 0 1.915.575 1.915 1.643v1.134c0 1.036-.72 1.775-2.063 1.775h-3.372zM86.37 40.452c-1.309 0-1.489.805-1.489 1.479v7.166h1.686v-7.232h2.783v-1.413h-2.98zM89.853 44.774c0 2.761 1.588 4.487 4.174 4.487 2.636 0 4.175-1.792 4.175-4.487 0-2.86-1.736-4.487-4.175-4.487-2.52 0-4.174 1.677-4.174 4.487zm1.719.707v-1.348c0-1.48.999-2.416 2.455-2.416 1.408 0 2.44.937 2.44 2.416v1.348c0 1.545-1.064 2.367-2.44 2.367-1.358 0-2.455-.806-2.455-2.367zM100.327 37v2.038h1.686V37h-1.686zm0 3.452v10.025h-1.85v1.364h2.03c1.489 0 1.489-1.084 1.489-1.495v-1.71l.017-8.184h-1.686zM103.889 44.758c0 2.744 1.522 4.503 4.092 4.503 2.03 0 3.569-1.118 3.912-2.794h-1.669c-.262.855-1.081 1.446-2.226 1.446-1.425 0-2.374-.92-2.374-2.284v-.477h6.171c.033-.28.066-.657.066-.937 0-2.449-1.555-3.928-3.896-3.928-2.488 0-4.076 1.644-4.076 4.47zm1.735-.822v-.197c0-1.25.949-2.104 2.324-2.104 1.326 0 2.21.822 2.21 2.022v.279h-4.534zM121.389 46.089h-1.67c-.196 1.085-1.031 1.759-2.226 1.759-1.408 0-2.374-.888-2.374-2.334v-1.348c0-1.446.933-2.449 2.374-2.449 1.08 0 1.931.526 2.193 1.644h1.686c-.278-1.858-1.751-3.074-3.814-3.074-2.472 0-4.158 1.627-4.158 4.504 0 2.728 1.523 4.47 4.109 4.47 2.128 0 3.618-1.2 3.88-3.172zM125.422 41.865h1.784v-1.413h-1.784V37.64h-1.669v2.81h-1.556v1.414h1.556V47.7c0 .838.36 1.397 1.424 1.397h2.029v-1.38h-1.784v-5.852z"></path> -->
  <path fill-rule="evenodd" clip-rule="evenodd" d="M4 23C4 9.5 15 0 32 0v9c-8 0-15 3.5-15 14h13v26h-8v-4h-4v4h-3v-4h-4v-4H7v4h4v4H4V33h4v-4H4v-6zm10 12h4v4h-4v-4z"></path>
  <path d="M4 29H0v4h4v-4z"></path>
  <path fill-rule="evenodd" clip-rule="evenodd" d="M36 23C36 9.5 47 0 64 0v9c-8 0-15 3.5-15 14h13v18h4v4h-4v4h-5v-4h4v-4h-4v4h-4v4H43v-4h4v-4h-4v-4h-4v4h4v4h-4v4h-3V23zm15 13v-4h-4v4h4z"></path>
  <!-- <path d="M81.97 1.115H73V2.71h3.601v10.388h1.768V2.709h3.602V1.115zM83.388 13.097h1.686V8.51c0-1.676.933-2.794 2.373-2.794 1.212 0 1.9.723 1.9 2.252v5.128h1.702V7.804c0-2.136-1.065-3.517-2.98-3.517-1.276 0-2.34.641-2.88 1.742h-.115V1h-1.686v12.097zM92.113 8.758c0 2.744 1.523 4.503 4.093 4.503 2.03 0 3.568-1.118 3.912-2.794h-1.67c-.262.855-1.08 1.446-2.226 1.446-1.424 0-2.373-.92-2.373-2.284v-.477h6.171c.033-.28.065-.657.065-.937 0-2.449-1.555-3.928-3.896-3.928-2.488 0-4.076 1.644-4.076 4.47zm1.736-.822v-.197c0-1.25.949-2.104 2.324-2.104 1.326 0 2.21.822 2.21 2.021v.28h-4.534z"></path> -->
</svg>